<?xml version="1.0" encoding="UTF-8" standalone="no"?>
<!DOCTYPE svg PUBLIC "-//W3C//DTD SVG 1.1//EN" "http://www.w3.org/Graphics/SVG/1.1/DTD/svg11.dtd">
<svg width="100%" height="100%" viewBox="0 0 501 501" version="1.1" xmlns="http://www.w3.org/2000/svg" xmlns:xlink="http://www.w3.org/1999/xlink" xml:space="preserve" xmlns:serif="http://www.serif.com/" style="fill-rule:evenodd;clip-rule:evenodd;stroke-linejoin:round;stroke-miterlimit:2;">
    <g transform="matrix(1,0,0,1,-49.9838,-49.9835)">
        <path d="M101.474,328.048C114.411,420.336 190.3,492.566 284.28,499.868L259.42,524.727L284.71,550.016C162.318,542.639 63.505,447.183 50.884,326.236L75.273,301.847L101.474,328.048ZM550.016,315.29C542.627,437.697 447.17,536.503 326.236,549.116L301.847,524.727L328.048,498.526C420.339,485.586 492.566,409.698 499.868,315.72L524.727,340.58L550.016,315.29ZM498.526,271.952C485.589,179.664 409.7,107.434 315.72,100.132L340.58,75.273L315.29,49.984C437.682,57.361 536.495,152.817 549.116,273.764L524.727,298.153L498.526,271.952ZM49.984,284.71C57.373,162.303 152.83,63.497 273.764,50.884L298.153,75.273L271.952,101.474C179.661,114.414 107.434,190.302 100.132,284.28L75.273,259.42L49.984,284.71Z" style="fill:rgb(191,255,64);"/>
        <g transform="matrix(1.35787,0,0,1.35787,-60.5698,-78.207)">
            <circle cx="265.541" cy="278.53" r="75.095" style="fill:rgb(191,255,64);"/>
        </g>
    </g>
</svg>
